<?xml version="1.0"?>
<svg xmlns="http://www.w3.org/2000/svg" id="Layer_1" data-name="Layer 1" viewBox="0 0 512 512" width="512" height="512"><title>Pipe</title><path d="M500.127,192H438.762A8.019,8.019,0,0,0,431,200.25V219H340V196.417C340,192,336.418,188,332,188H282V149h90.333c4.418,0,7.667-3.832,7.667-8.25V100.083A7.8,7.8,0,0,0,372.333,92H139.667A7.8,7.8,0,0,0,132,100.083V140.75c0,4.418,3.249,8.25,7.667,8.25H230v39H180c-4.418,0-8,4-8,8.417V219H81V200.25A8.019,8.019,0,0,0,73.238,192H11.873A8.111,8.111,0,0,0,4,200.25V411.917A7.964,7.964,0,0,0,11.873,420H73.238A7.872,7.872,0,0,0,81,411.917V393H431v18.917A7.872,7.872,0,0,0,438.762,420h61.365A7.964,7.964,0,0,0,508,411.917V200.25A8.111,8.111,0,0,0,500.127,192ZM65,404H20V208H65ZM344,108h20v25H344Zm-40,0h24v25H304Zm-40,0h24v25H264Zm2,41v39H246V149Zm-98-16H148V108h20Zm40,0H184V108h24Zm16,0V108h24v25Zm-36,71H324v15H188ZM431,377H81V235H431Zm61,27H447V208h45Z"/></svg>
