<?xml version="1.0" encoding="iso-8859-1"?>
<!-- Generator: Adobe Illustrator 21.0.0, SVG Export Plug-In . SVG Version: 6.00 Build 0)  -->
<svg xmlns="http://www.w3.org/2000/svg" xmlns:xlink="http://www.w3.org/1999/xlink" version="1.1" id="Capa_1" x="0px" y="0px" viewBox="0 0 505.01 505.01" style="enable-background:new 0 0 505.01 505.01;" xml:space="preserve" width="512" height="512">
<g>
	<path d="M384.917,139.008c-0.853-2.626-3.08-4.571-5.797-5.063l-36.669-6.64l-17.646-32.822c-1.307-2.432-3.845-3.949-6.605-3.949   s-5.299,1.517-6.605,3.949l-17.646,32.822l-36.668,6.64c-2.717,0.492-4.943,2.437-5.797,5.063   c-0.854,2.625-0.194,5.508,1.714,7.502l25.763,26.924l-5.017,36.925c-0.372,2.736,0.79,5.455,3.023,7.077   c1.305,0.948,2.852,1.433,4.409,1.433c1.108,0,2.222-0.246,3.256-0.744l33.567-16.182l33.568,16.182   c2.487,1.198,5.432,0.935,7.665-0.688c2.233-1.623,3.396-4.341,3.023-7.077l-5.017-36.925l25.763-26.924   C385.111,144.516,385.771,141.634,384.917,139.008z M344.103,165.677c-1.579,1.65-2.32,3.931-2.013,6.195l3.626,26.684   l-24.259-11.694c-1.029-0.496-2.143-0.744-3.257-0.744s-2.228,0.248-3.257,0.744l-24.258,11.694l3.626-26.684   c0.308-2.264-0.434-4.544-2.013-6.195l-18.618-19.457l26.498-4.798c2.248-0.407,4.188-1.816,5.27-3.829l12.752-23.719   l12.752,23.719c1.081,2.012,3.021,3.422,5.27,3.829l26.499,4.798L344.103,165.677z"/>
	<path d="M495.865,306.36c-8.857-8.856-20.472-11.138-32.704-6.425c-7.772,2.995-13.362,7.833-14.599,8.958l-63.125,52.208   c0.22-1.621,0.342-3.361,0.342-5.23c0-12.767-13.451-22.049-41.123-28.378c-21.091-4.824-49.927-7.59-79.114-7.59   c-16.944,0-33.804,2.481-50.258,7.37v-3.979c0-4.142-3.358-7.5-7.5-7.5h-54.676c-4.142,0-7.5,3.358-7.5,7.5v9.656H7.5   c-4.142,0-7.5,3.358-7.5,7.5v107.774c0,4.142,3.358,7.5,7.5,7.5h18.521c4.142,0,7.5-3.358,7.5-7.5s-3.358-7.5-7.5-7.5H15V347.95   h130.608v92.774H56.021c-4.142,0-7.5,3.358-7.5,7.5s3.358,7.5,7.5,7.5h89.588v9.656c0,4.142,3.358,7.5,7.5,7.5h54.676   c4.142,0,7.5-3.358,7.5-7.5v-16.642c25.156,0.699,57.721,1.397,87.464,1.397c30.104,0,57.319-0.716,70.999-2.87   c22.524-3.548,60.319-33.032,112.337-87.632c1.478-1.551,2.52-2.647,3.056-3.183l0.085-0.086c3.468-3.466,9.921-9.919,13.42-18.311   C507.372,326.716,504.965,315.46,495.865,306.36z M200.284,457.88h-39.676v-9.656V340.45v-9.656h39.676V457.88z M488.8,332.282   c-2.357,5.654-7.446,10.743-10.181,13.477l-0.087,0.086c-0.58,0.58-1.709,1.764-3.309,3.442   c-27.968,29.356-78.645,79.197-103.811,83.161c-26.092,4.109-105.934,2.685-155.995,1.288v-90.806   c16.375-5.329,33.21-8.027,50.124-8.027c28.111,0,55.729,2.629,75.771,7.213c24.054,5.501,29.467,11.936,29.467,13.755   c0,11.357-6.863,13.161-9.814,13.409c-0.193,0.016-0.384,0.04-0.572,0.07c-0.144-0.023-0.288-0.042-0.435-0.057   c-5.441-0.557-56.408-0.13-66.57-0.039c-4.129,0.037-7.451,3.404-7.433,7.533s3.371,7.466,7.5,7.466h65.738   c0.408,0,0.809-0.033,1.2-0.096c0.391,0.063,0.792,0.096,1.2,0.096h16.686c1.745,0,3.436-0.608,4.78-1.721l75.216-62.208   c0.12-0.1,0.237-0.203,0.352-0.31c0.041-0.038,4.243-3.894,9.927-6.083c8.841-3.409,13.769,0.1,16.704,3.035   C490.104,321.813,491.196,326.536,488.8,332.282z"/>
	<path d="M318.2,277.276c67.587,0,122.573-54.986,122.573-122.573S385.787,32.13,318.2,32.13c-27.823,0-54.052,9.088-75.85,26.282   c-3.252,2.565-3.809,7.281-1.244,10.533c2.565,3.252,7.281,3.809,10.534,1.244c19.125-15.086,42.142-23.06,66.561-23.06   c59.316,0,107.573,48.257,107.573,107.573S377.517,262.276,318.2,262.276c-59.315,0-107.572-48.257-107.572-107.573   c0-22.601,6.928-44.227,20.036-62.539c2.411-3.368,1.635-8.053-1.733-10.464c-3.369-2.412-8.053-1.636-10.464,1.733   c-14.941,20.874-22.838,45.518-22.838,71.27C195.628,222.29,250.613,277.276,318.2,277.276z"/>
</g>















</svg>
