<?xml version="1.0" encoding="iso-8859-1"?>
<!-- Generator: Adobe Illustrator 21.0.0, SVG Export Plug-In . SVG Version: 6.00 Build 0)  -->
<svg xmlns="http://www.w3.org/2000/svg" xmlns:xlink="http://www.w3.org/1999/xlink" version="1.1" id="Capa_1" x="0px" y="0px" viewBox="0 0 512 512" style="enable-background:new 0 0 512 512;" xml:space="preserve" width="512" height="512">
<g>
	<path d="M436,512c8.284,0,15-6.716,15-15V15c0-8.284-6.716-15-15-15H76c-8.284,0-15,6.716-15,15v482c0,8.284,6.716,15,15,15H436z    M421,422H91V90h330V422z M91,482v-30h330v30H91z M421,30v30H91V30H421z"/>
	<path d="M256,392c74.439,0,135-61.009,135-136s-60.561-136-135-136s-135,61.009-135,136S181.561,392,256,392z M256,150   c57.897,0,105,47.551,105,106s-47.103,106-105,106s-105-47.551-105-106S198.103,150,256,150z"/>
	<path d="M185.394,266.606l45,45C233.207,314.419,237.022,316,241,316c3.979,0,7.793-1.581,10.606-4.394l69.686-69.687   c5.858-5.858,5.858-15.355,0-21.213c-5.857-5.858-15.355-5.858-21.213,0L241,279.787l-34.394-34.393   c-5.857-5.858-15.355-5.858-21.213,0C179.536,251.251,179.536,260.749,185.394,266.606z"/>
</g>















</svg>
