<svg height="545pt" viewBox="-25 -17 545 545.33539" width="545pt" xmlns="http://www.w3.org/2000/svg"><path d="m229.597656 264.144531h-221.542968c-4.707032 0-8.519532-3.808593-8.519532-8.519531v-27.742188c0-23.820312 26.347656-40.421874 49.996094-40.421874h32.515625c4.703125 0 8.515625 3.804687 8.515625 8.515624 0 4.710938-3.8125 8.523438-8.515625 8.523438h-32.515625c-16.632812 0-32.957031 11.585938-32.957031 23.382812v19.21875h204.5v-22.871093c0-9.960938-14.210938-19.730469-28.691407-19.730469h-36.796874c-4.707032 0-8.523438-3.8125-8.523438-8.523438 0-4.710937 3.816406-8.515624 8.523438-8.515624h36.796874c21.632813 0 45.734376 15.097656 45.734376 36.769531v31.394531c0 4.710938-3.8125 8.519531-8.519532 8.519531zm0 0"/><path d="m195.523438 132.070312c-.234376 0-.46875-.007812-.703126-.023437-4.695312-.390625-8.1875-4.5-7.796874-9.195313l4.261718-52.003906c-.035156-29.355468-22.734375-53.808594-50.644531-53.808594h-43.632813c-27.90625 0-50.609374 24.453126-50.609374 54.507813l4.230468 51.304687c.386719 4.695313-3.101562 8.804688-7.796875 9.195313-4.71875.316406-8.796875-3.109375-9.1875-7.796875l-4.253906-52.007812c-.035156-40.152344 30.316406-72.242188 67.617187-72.242188h43.632813c37.304687 0 67.65625 32.089844 67.65625 71.546875l-4.292969 52.703125c-.363281 4.453125-4.089844 7.820312-8.480468 7.820312zm0 0"/><path d="m118.828125 213.023438c-24.582031 0-46.894531-9.097657-59.6875-24.339844-15.503906-18.488282-25.523437-44.195313-25.523437-65.492188v-34.335937c0-14.492188.332031-22.867188 7.070312-26.589844 6.015625-3.347656 11.695312.246094 16.710938 3.398437 6.660156 4.203126 16.730468 10.542969 33.171874 10.542969 13.273438 0 29.242188-4.0625 44.679688-7.980469 24.941406-6.335937 46.46875-11.816406 59.488281-1.6875 6.167969 4.800782 9.296875 12.304688 9.296875 22.316407v34.34375c0 21.289062-10.019531 46.996093-25.523437 65.484375-12.789063 15.242187-35.105469 24.339844-59.683594 24.339844zm-68.074219-131.417969c-.058594 1.90625-.09375 4.273437-.09375 7.25v34.335937c0 17.261719 8.65625 39.179688 21.535156 54.542969 9.449219 11.257813 27.320313 18.242187 46.632813 18.242187s37.175781-6.984374 46.625-18.242187c12.882813-15.363281 21.542969-37.28125 21.542969-54.542969v-34.335937c0-4.480469-.917969-7.464844-2.722656-8.867188-6.425782-5.003906-26.832032.1875-44.828126 4.753907-16.453124 4.175781-33.464843 8.503906-48.871093 8.503906-19.179688 0-32.09375-6.898438-39.820313-11.640625zm0 0"/><path d="m485.222656 511.25h-221.542968c-4.707032 0-8.519532-3.8125-8.519532-8.519531v-27.742188c0-23.824219 26.347656-40.425781 49.996094-40.425781h27.273438c4.707031 0 8.523437 3.8125 8.523437 8.523438 0 4.710937-3.816406 8.515624-8.523437 8.515624h-27.273438c-16.636719 0-32.953125 11.585938-32.953125 23.386719v19.21875h204.5v-22.871093c0-9.960938-14.214844-19.734376-28.699219-19.734376h-36.773437c-4.703125 0-8.515625-3.804687-8.515625-8.515624 0-4.710938 3.8125-8.523438 8.515625-8.523438h36.773437c21.636719 0 45.738282 15.105469 45.738282 36.773438v31.394531c0 4.707031-3.8125 8.519531-8.519532 8.519531zm0 0"/><path d="m451.148438 379.175781c-.234376 0-.46875-.003906-.703126-.023437-4.695312-.390625-8.183593-4.5-7.796874-9.195313l4.257812-52.003906c-.027344-29.359375-22.730469-53.808594-50.636719-53.808594h-43.632812c-27.910157 0-50.609375 24.449219-50.609375 54.503907l4.226562 51.308593c.390625 4.695313-3.101562 8.804688-7.796875 9.195313-4.652343.40625-8.800781-3.101563-9.1875-7.796875l-4.257812-52.007813c-.03125-40.148437 30.316406-72.246094 67.625-72.246094h43.632812c37.300781 0 67.648438 32.097657 67.648438 71.546876l-4.285157 52.707031c-.371093 4.449219-4.089843 7.820312-8.484374 7.820312zm0 0"/><path d="m374.449219 460.125c-24.578125 0-46.894531-9.097656-59.683594-24.339844-15.503906-18.492187-25.523437-44.191406-25.523437-65.488281v-34.339844c0-14.484375.328124-22.867187 7.070312-26.585937 6.015625-3.34375 11.695312.242187 16.714844 3.398437 6.660156 4.203125 16.726562 10.539063 33.167968 10.539063 13.277344 0 29.242188-4.058594 44.675782-7.980469 24.941406-6.332031 46.480468-11.804687 59.492187-1.6875 6.167969 4.804687 9.296875 12.308594 9.296875 22.316406v34.34375c0 21.292969-10.019531 46.996094-25.523437 65.484375-12.792969 15.242188-35.105469 24.339844-59.6875 24.339844zm-68.070313-131.414062c-.058594 1.90625-.097656 4.277343-.097656 7.246093v34.339844c0 17.257813 8.660156 39.179687 21.542969 54.539063 9.449219 11.257812 27.3125 18.25 46.625 18.25s37.183593-6.992188 46.628906-18.25c12.882813-15.359376 21.539063-37.28125 21.539063-54.539063v-34.339844c0-4.476562-.914063-7.464843-2.722657-8.863281-6.429687-4.996094-26.824219.183594-44.820312 4.753906-16.457031 4.179688-33.46875 8.503906-48.875 8.503906-19.179688 0-32.089844-6.898437-39.820313-11.640624zm0 0"/><path d="m255.160156 102.253906h-17.042968c-4.707032 0-8.519532-3.8125-8.519532-8.523437 0-4.710938 3.8125-8.523438 8.519532-8.523438h17.042968c4.707032 0 8.519532 3.8125 8.519532 8.523438 0 4.710937-3.8125 8.523437-8.519532 8.523437zm0 0"/><path d="m323.328125 102.253906h-34.085937c-4.707032 0-8.523438-3.8125-8.523438-8.523437 0-4.710938 3.816406-8.523438 8.523438-8.523438h34.085937c4.703125 0 8.515625 3.8125 8.515625 8.523438 0 4.710937-3.8125 8.523437-8.515625 8.523437zm0 0"/><path d="m374.449219 119.292969c-4.707031 0-8.519531-3.8125-8.519531-8.523438v-8.515625h-8.519532c-4.707031 0-8.523437-3.8125-8.523437-8.523437 0-4.710938 3.816406-8.523438 8.523437-8.523438h17.039063c4.710937 0 8.523437 3.8125 8.523437 8.523438v17.039062c0 4.710938-3.8125 8.523438-8.523437 8.523438zm0 0"/><path d="m374.449219 181.785156c-4.707031 0-8.519531-3.8125-8.519531-8.523437v-31.242188c0-4.710937 3.8125-8.523437 8.519531-8.523437 4.710937 0 8.523437 3.8125 8.523437 8.523437v31.242188c0 4.710937-3.8125 8.523437-8.523437 8.523437zm0 0"/><path d="m374.449219 230.0625c-4.707031 0-8.519531-3.8125-8.519531-8.523438v-17.039062c0-4.710938 3.8125-8.523438 8.519531-8.523438 4.710937 0 8.523437 3.8125 8.523437 8.523438v17.039062c0 4.710938-3.8125 8.523438-8.523437 8.523438zm0 0"/><path d="m118.828125 306.753906c-4.710937 0-8.523437-3.816406-8.523437-8.523437v-17.042969c0-4.707031 3.8125-8.519531 8.523437-8.519531 4.703125 0 8.519531 3.8125 8.519531 8.519531v17.042969c0 4.707031-3.816406 8.523437-8.519531 8.523437zm0 0"/><path d="m118.828125 374.917969c-4.710937 0-8.523437-3.8125-8.523437-8.523438v-34.085937c0-4.707032 3.8125-8.515625 8.523437-8.515625 4.703125 0 8.519531 3.808593 8.519531 8.515625v34.085937c0 4.710938-3.816406 8.523438-8.519531 8.523438zm0 0"/><path d="m135.867188 426.039062h-17.039063c-4.710937 0-8.523437-3.808593-8.523437-8.515624v-17.046876c0-4.710937 3.8125-8.515624 8.523437-8.515624 4.703125 0 8.519531 3.804687 8.519531 8.515624v8.523438h8.519532c4.707031 0 8.519531 3.8125 8.519531 8.523438 0 4.707031-3.8125 8.515624-8.519531 8.515624zm0 0"/><path d="m198.351562 426.039062h-31.246093c-4.703125 0-8.515625-3.808593-8.515625-8.515624 0-4.710938 3.8125-8.523438 8.515625-8.523438h31.246093c4.703126 0 8.519532 3.8125 8.519532 8.523438 0 4.707031-3.816406 8.515624-8.519532 8.515624zm0 0"/><path d="m246.636719 426.039062h-17.039063c-4.703125 0-8.523437-3.808593-8.523437-8.515624 0-4.710938 3.820312-8.523438 8.523437-8.523438h17.039063c4.707031 0 8.523437 3.8125 8.523437 8.523438 0 4.707031-3.816406 8.515624-8.523437 8.515624zm0 0"/></svg>