<?xml version="1.0" encoding="iso-8859-1"?>
<!-- Generator: Adobe Illustrator 19.0.0, SVG Export Plug-In . SVG Version: 6.00 Build 0)  -->
<svg version="1.1" id="Capa_1" xmlns="http://www.w3.org/2000/svg" xmlns:xlink="http://www.w3.org/1999/xlink" x="0px" y="0px"
	 viewBox="0 0 480 480" style="enable-background:new 0 0 480 480;" xml:space="preserve">
<g>
	<g>
		<path d="M295.547,73.078c-0.993-2.836-3.492-4.876-6.469-5.281l-29.016-3.938l-13.406-27.375
			c-1.395-2.752-4.219-4.486-7.304-4.484c-3.096,0.046-5.887,1.875-7.164,4.695L219.57,64.5l-28.898,4.859
			c-4.358,0.736-7.294,4.866-6.558,9.224c0.279,1.652,1.07,3.176,2.261,4.355l21.469,21.242l-4.57,30.641
			c-0.655,4.366,2.354,8.437,6.721,9.091c1.778,0.266,3.594-0.074,5.154-0.966l25.609-14.609l26.023,13.789
			c3.904,2.067,8.745,0.578,10.812-3.326c0.836-1.579,1.119-3.392,0.805-5.151l-5.461-30.484l20.859-21.922
			C295.869,79.066,296.545,75.912,295.547,73.078z M258.555,95.07c-1.754,1.846-2.526,4.415-2.078,6.922l3.273,18.305l-15.391-8.156
			c-2.418-1.285-5.328-1.238-7.703,0.125l-15.133,8.625l2.742-18.367c0.374-2.523-0.476-5.073-2.289-6.867l-13.25-13.109
			l17.695-2.977c2.624-0.443,4.855-2.162,5.953-4.586l7.367-16.234l7.828,15.977c1.175,2.396,3.465,4.051,6.109,4.414l17.742,2.406
			L258.555,95.07z"/>
	</g>
</g>
<g>
	<g>
		<path d="M426.997,323.646c24.118-19.273,28.045-54.447,8.773-78.565c-8.886-11.12-21.679-18.431-35.77-20.442V160h-16v64.639
			c-30.563,4.363-51.802,32.677-47.439,63.24c2.009,14.071,9.302,26.849,20.397,35.734c-15.408,2.771-29.67,9.986-41.03,20.759
			c-11.349-10.727-25.569-17.926-40.932-20.725c24.144-19.328,28.049-54.57,8.72-78.714c-19.328-24.144-54.57-28.049-78.714-8.72
			s-28.049,54.57-8.72,78.714c2.577,3.219,5.501,6.143,8.72,8.72c-15.363,2.799-29.583,9.999-40.932,20.725
			c-11.36-10.772-25.622-17.988-41.03-20.759c24.098-19.298,27.99-54.477,8.692-78.576c-8.885-11.095-21.662-18.389-35.734-20.397
			V96H80v128.639c-30.562,4.362-51.802,32.675-47.439,63.237c2.011,14.091,9.322,26.884,20.442,35.77
			C20.305,331.017,0,349.097,0,373.18V472c-0.003,4.416,3.575,7.997,7.991,8c0.003,0,0.006,0,0.009,0h464
			c4.416,0.003,7.997-3.575,8-7.991c0-0.003,0-0.006,0-0.009v-98.82C480,349.097,459.695,331.017,426.997,323.646z M48,280
			c0-22.091,17.909-40,40-40s40,17.909,40,40c0,22.091-17.909,40-40,40C65.919,319.974,48.026,302.081,48,280z M152,373.18V464H16
			v-90.82C16,347.633,53.32,336,88,336c31.762,0,56.727,8.564,66.865,22.451C152.983,363.134,152.01,368.133,152,373.18z M200,280
			c0-22.091,17.909-40,40-40c22.091,0,40,17.909,40,40c0,22.091-17.909,40-40,40C217.919,319.974,200.026,302.081,200,280z M312,464
			H168v-90.82c0-25.547,37.32-37.18,72-37.18s72,11.633,72,37.18V464z M352,280c0-22.091,17.909-40,40-40c22.091,0,40,17.909,40,40
			c0,22.091-17.909,40-40,40C369.919,319.974,352.026,302.081,352,280z M464,464H328v-90.82c-0.01-5.047-0.983-10.046-2.865-14.729
			C335.273,344.564,360.238,336,392,336c34.68,0,72,11.633,72,37.18V464z"/>
	</g>
</g>
<g>
	<g>
		<path d="M392.009,0c-0.003,0-0.006,0-0.009,0H88c-4.416-0.003-7.997,3.575-8,7.991C80,7.994,80,7.997,80,8v40h16V16h288v96h16V8
			C400.003,3.584,396.425,0.003,392.009,0z"/>
	</g>
</g>
<g>
	<g>
		<rect x="312" y="32" width="16" height="16"/>
	</g>
</g>
<g>
	<g>
		<rect x="312" y="64" width="16" height="16"/>
	</g>
</g>
<g>
	<g>
		<rect x="312" y="96" width="16" height="16"/>
	</g>
</g>
<g>
	<g>
		<rect x="312" y="128" width="16" height="16"/>
	</g>
</g>
<g>
	<g>
		<rect x="152" y="32" width="16" height="16"/>
	</g>
</g>
<g>
	<g>
		<rect x="152" y="64" width="16" height="16"/>
	</g>
</g>
<g>
	<g>
		<rect x="152" y="96" width="16" height="16"/>
	</g>
</g>
<g>
	<g>
		<rect x="152" y="128" width="16" height="16"/>
	</g>
</g>
<g>
	<g>
		<rect x="312" y="160" width="16" height="16"/>
	</g>
</g>
<g>
	<g>
		<rect x="344" y="32" width="16" height="16"/>
	</g>
</g>
<g>
	<g>
		<rect x="344" y="64" width="16" height="16"/>
	</g>
</g>
<g>
	<g>
		<rect x="344" y="96" width="16" height="16"/>
	</g>
</g>
<g>
	<g>
		<rect x="344" y="128" width="16" height="16"/>
	</g>
</g>
<g>
	<g>
		<rect x="344" y="160" width="16" height="16"/>
	</g>
</g>
<g>
	<g>
		<rect x="280" y="160" width="16" height="16"/>
	</g>
</g>
<g>
	<g>
		<rect x="248" y="160" width="16" height="16"/>
	</g>
</g>
<g>
	<g>
		<rect x="216" y="160" width="16" height="16"/>
	</g>
</g>
<g>
	<g>
		<rect x="184" y="160" width="16" height="16"/>
	</g>
</g>
<g>
	<g>
		<rect x="152" y="160" width="16" height="16"/>
	</g>
</g>
<g>
	<g>
		<rect x="120" y="32" width="16" height="16"/>
	</g>
</g>
<g>
	<g>
		<rect x="120" y="64" width="16" height="16"/>
	</g>
</g>
<g>
	<g>
		<rect x="120" y="96" width="16" height="16"/>
	</g>
</g>
<g>
	<g>
		<rect x="120" y="128" width="16" height="16"/>
	</g>
</g>
<g>
	<g>
		<rect x="120" y="160" width="16" height="16"/>
	</g>
</g>
<g>
	<g>
		<rect x="312" y="192" width="16" height="16"/>
	</g>
</g>
<g>
	<g>
		<rect x="344" y="192" width="16" height="16"/>
	</g>
</g>
<g>
	<g>
		<rect x="280" y="192" width="16" height="16"/>
	</g>
</g>
<g>
	<g>
		<rect x="248" y="192" width="16" height="16"/>
	</g>
</g>
<g>
	<g>
		<rect x="216" y="192" width="16" height="16"/>
	</g>
</g>
<g>
	<g>
		<rect x="184" y="192" width="16" height="16"/>
	</g>
</g>
<g>
	<g>
		<rect x="152" y="192" width="16" height="16"/>
	</g>
</g>
<g>
	<g>
		<rect x="120" y="192" width="16" height="16"/>
	</g>
</g>
<g>
	<g>
		<path d="M88,64c-13.249-0.014-23.986-10.751-24-24c0-4.418-3.582-8-8-8s-8,3.582-8,8c-0.014,13.249-10.751,23.986-24,24
			c-4.418,0-8,3.582-8,8s3.582,8,8,8c13.249,0.014,23.986,10.751,24,24c0,4.418,3.582,8,8,8s8-3.582,8-8
			c0.014-13.249,10.751-23.986,24-24c4.418,0,8-3.582,8-8S92.418,64,88,64z M56,80.023c-2.282-3.04-4.984-5.741-8.023-8.023
			c3.04-2.282,5.741-4.984,8.023-8.023c2.282,3.04,4.984,5.741,8.023,8.023C60.984,74.282,58.282,76.984,56,80.023z"/>
	</g>
</g>
<g>
	<g>
		<path d="M464,128c-13.249-0.014-23.986-10.751-24-24c0-4.418-3.582-8-8-8s-8,3.582-8,8c-0.014,13.249-10.751,23.986-24,24
			c-4.418,0-8,3.582-8,8s3.582,8,8,8c13.249,0.014,23.986,10.751,24,24c0,4.418,3.582,8,8,8s8-3.582,8-8
			c0.014-13.249,10.751-23.986,24-24c4.418,0,8-3.582,8-8S468.418,128,464,128z M432,144.023c-2.282-3.04-4.983-5.741-8.023-8.023
			c3.04-2.282,5.741-4.984,8.023-8.023c2.282,3.04,4.984,5.741,8.023,8.023C436.984,138.282,434.282,140.983,432,144.023z"/>
	</g>
</g>
<g>
</g>
<g>
</g>
<g>
</g>
<g>
</g>
<g>
</g>
<g>
</g>
<g>
</g>
<g>
</g>
<g>
</g>
<g>
</g>
<g>
</g>
<g>
</g>
<g>
</g>
<g>
</g>
<g>
</g>
</svg>
