<svg height="496pt" viewBox="0 0 496 496" width="496pt" xmlns="http://www.w3.org/2000/svg"><path d="m176 176h144v-64h-144zm16-48h112v32h-112zm0 0"/><path d="m280 192h-64v48h64zm-16 32h-32v-16h32zm0 0"/><path d="m240 256h16v16h-16zm0 0"/><path d="m272 256h16v16h-16zm0 0"/><path d="m208 256h16v16h-16zm0 0"/><path d="m208 408h80v-48h-80zm16-32h48v16h-48zm0 0"/><path d="m496 397.785156v-43.570312l-20.03125-6.605469c-2.191406-7.730469-5.28125-15.167969-9.207031-22.203125l9.496093-18.855469-30.808593-30.808593-18.855469 9.496093c-7.035156-3.925781-14.472656-7.015625-22.203125-9.207031l-6.605469-20.03125h-13.242187l7.25-77.265625c.136719-1.582031.207031-3.175781.207031-4.757813 0-21.585937-13.121094-40.921874-32.550781-49.375l.207031-1.523437c.222656-1.703125.34375-3.40625.34375-5.109375 0-18.890625-13.910156-34.472656-32-37.359375v-8.609375c0-10.414062-6.710938-19.214844-16-22.527344v-49.472656h-48v48h-32v-48h-48v49.472656c-9.289062 3.3125-16 12.113282-16 22.527344v4.375c-5.863281-2.773438-13.382812-6.136719-19.550781-8.191406l-6.664063-20.183594h-43.570312l-6.605469 20.03125c-7.730469 2.191406-15.167969 5.28125-22.203125 9.207031l-18.855469-9.496093-30.808593 30.808593 9.496093 18.855469c-3.925781 7.035156-7.015625 14.472656-9.207031 22.203125l-20.03125 6.605469v43.570312l20.03125 6.605469c2.191406 7.730469 5.28125 15.167969 9.207031 22.203125l-9.496093 18.855469 30.808593 30.808593 18.855469-9.496093c7.035156 3.925781 14.464844 7.015625 22.195312 9.207031l6.613282 20.03125h16.25l10.855468 115.734375c1.9375 20.671875 19.054688 36.265625 39.824219 36.265625h113.351563l-2.742188 5.449219 30.804688 30.808593 18.855468-9.496093c7.035157 3.925781 14.464844 7.015625 22.195313 9.207031l6.605469 20.03125h43.570312l6.605469-20.03125c7.730469-2.191406 15.167969-5.28125 22.195313-9.207031l18.855468 9.496093 30.804688-30.808593-9.492188-18.855469c3.925782-7.035156 7.015625-14.472656 9.207032-22.203125zm-125.3125 5.949219 7.839844-83.605469c29.703125 1.335938 53.472656 25.847656 53.472656 55.871094 0 30.878906-25.121094 56-56 56-6.054688 0-11.984375-1.070312-17.640625-2.953125 6.800781-6.4375 11.382813-15.253906 12.328125-25.3125zm5.3125-229.757813c0 1.113282-.046875 2.214844-.144531 3.296876l-21.09375 224.964843c-1.167969 12.402344-11.441407 21.761719-23.898438 21.761719h-18.34375l7.808594-124.945312c10.097656-5.679688 17.488281-15.789063 19.136719-27.894532l17.703125-129.808594c11.375 6.710938 18.832031 19.015626 18.832031 32.625zm-176.488281 250.023438-7.511719-120.199219c.726562.039063 1.425781.199219 2.160156.199219h107.679688c.734375 0 1.433594-.160156 2.152344-.199219l-7.503907 120.199219zm144.488281-306.03125c0 1-.070312 2-.199219 2.96875l-20.191406 148.0625c-1.480469 10.832031-10.832031 19-21.769531 19h-107.679688c-10.929687 0-20.289062-8.167969-21.769531-19l-20.191406-148.039062c-.128907-.992188-.199219-1.992188-.199219-2.992188 0-12.121094 9.847656-21.96875 21.96875-21.96875h148.070312c12.113282 0 21.960938 9.847656 21.960938 21.96875zm-64-53.96875v16h-64v-16zm32 16h-16v-16h8c4.40625 0 8 3.59375 8 8zm-32-64h16v32h-16zm-64 0v32h-16v-32zm-24 48h8v16h-16v-8c0-4.40625 3.59375-8 8-8zm-82.214844 208-5.753906-17.433594-4.351562-1.03125c-9.105469-2.160156-17.777344-5.75-25.777344-10.6875l-3.804688-2.34375-16.417968 8.257813-14.441407-14.441407 8.265625-16.417968-2.34375-3.804688c-4.945312-8-8.535156-16.671875-10.6875-25.777344l-1.03125-4.351562-17.441406-5.753906v-20.429688l17.433594-5.753906 1.03125-4.351562c2.160156-9.105469 5.75-17.777344 10.6875-25.777344l2.34375-3.804688-8.257813-16.417968 14.449219-14.449219 16.417969 8.265625 3.804687-2.34375c8-4.945313 16.675782-8.535156 25.777344-10.6875l4.351562-1.03125 5.746094-17.433594h20.429688l5.753906 17.433594 4.351562 1.03125c3 .710937 7.414063 2.414062 12 4.382812-4.59375 3.207032-8.335937 7.449219-11.144531 12.320313-6.824219-2.105469-13.917969-3.167969-21.175781-3.167969-39.695312 0-72 32.304688-72 72 0 36.320312 26.664062 66.382812 61.886719 71.296875l3.074219 32.703125zm-5.570312-93.238281 4.128906 43.972656c-25.488281-5.359375-44.34375-27.804687-44.34375-54.734375 0-30.878906 25.121094-56 56-56 5.609375 0 11.089844.824219 16.359375 2.433594-.113281 1.183594-.359375 2.320312-.359375 3.535156 0 1.710938.121094 3.414062.34375 5.136719l.207031 1.503906c-19.429687 8.445313-32.550781 27.78125-32.550781 49.367187 0 1.582032.070312 3.175782.214844 4.785157zm37.023437 223.476562-21.09375-224.941406c-.097656-1.105469-.144531-2.207031-.144531-3.320313 0-13.609374 7.457031-25.914062 18.839844-32.617187l17.703125 129.808594c1.648437 12.105469 9.042969 22.207031 19.136719 27.894531l7.808593 124.9375h-18.34375c-12.464843 0-22.738281-9.351562-23.90625-21.761719zm321.328125-10.269531-1.03125 4.351562c-2.160156 9.105469-5.75 17.777344-10.6875 25.777344l-2.34375 3.804688 8.265625 16.417968-14.449219 14.449219-16.417968-8.265625-3.804688 2.34375c-8 4.945313-16.664062 8.535156-25.777344 10.6875l-4.351562 1.03125-5.753906 17.433594h-20.429688l-5.753906-17.433594-4.351562-1.03125c-9.105469-2.160156-17.777344-5.75-25.777344-10.6875l-3.804688-2.34375-16.417968 8.265625-14.449219-14.449219 1.167969-2.320312h34.457031c3.449219 0 6.738281-.566406 9.929687-1.382812 10.734375 6.046874 22.789063 9.382812 35.214844 9.382812 39.695312 0 72-32.304688 72-72 0-38.34375-30.152344-69.6875-67.976562-71.800781l3.015624-32.199219h3.175782l5.753906 17.433594 4.351562 1.03125c9.105469 2.160156 17.777344 5.75 25.777344 10.6875l3.804688 2.34375 16.417968-8.265625 14.449219 14.449219-8.265625 16.417968 2.34375 3.804688c4.945313 8 8.535156 16.671875 10.6875 25.777344l1.03125 4.351562 17.433594 5.753906v20.429688zm0 0"/></svg>