<svg height="480pt" viewBox="-56 0 480 480" width="480pt" xmlns="http://www.w3.org/2000/svg"><path d="m328 0h-288c-22.082031.0273438-39.9726562 17.917969-40 40v400c.0273438 22.082031 17.917969 39.972656 40 40h288c22.082031-.027344 39.972656-17.917969 40-40v-400c-.027344-22.082031-17.917969-39.9726562-40-40zm-56 16h32v52.6875l-10.34375-10.34375c-3.125-3.121094-8.1875-3.121094-11.3125 0l-10.34375 10.34375zm80 424c0 13.253906-10.746094 24-24 24h-288c-13.253906 0-24-10.746094-24-24v-400c0-13.253906 10.746094-24 24-24h216v72c0 3.234375 1.949219 6.152344 4.9375 7.390625s6.429688.550781 8.71875-1.734375l18.34375-18.34375 18.34375 18.34375c1.5 1.5 3.535156 2.34375 5.65625 2.34375 1.050781.003906 2.09375-.203125 3.0625-.609375 2.988281-1.238281 4.9375-4.15625 4.9375-7.390625v-72h8c13.253906 0 24 10.746094 24 24zm0 0"/><path d="m312 112h-256c-4.417969 0-8 3.582031-8 8v168c0 4.417969 3.582031 8 8 8h256c4.417969 0 8-3.582031 8-8v-168c0-4.417969-3.582031-8-8-8zm-8 56h-48v-40h48zm-176 16h48v40h-48zm-16 40h-48v-40h48zm64-56h-48v-40h48zm16-40h48v40h-48zm-16 112v40h-48v-40zm16 0h48v40h-48zm0-16v-40h48v40zm64-40h48v40h-48zm-144-56v40h-48v-40zm-48 112h48v40h-48zm192 40v-40h48v40zm0 0"/><path d="m56 64h16v16h-16zm0 0"/><path d="m88 64h16v16h-16zm0 0"/><path d="m120 64h64v16h-64zm0 0"/><path d="m184 320h-128c-4.417969 0-8 3.582031-8 8v96c0 4.417969 3.582031 8 8 8h128c4.417969 0 8-3.582031 8-8v-96c0-4.417969-3.582031-8-8-8zm-8 96h-112v-80h112zm0 0"/><path d="m224 328h96v16h-96zm0 0"/><path d="m224 368h96v16h-96zm0 0"/><path d="m224 408h96v16h-96zm0 0"/></svg>