<svg height="480pt" viewBox="-88 0 480 480" width="480pt" xmlns="http://www.w3.org/2000/svg"><path d="m256.007812 342.542969v-30.542969c0-4.417969-3.582031-8-8-8h-32v-16h16c4.417969 0 8-3.582031 8-8v-24h8c4.417969 0 8-3.582031 8-8v-14.238281c5.085938-4.503907 8-10.96875 8-17.761719s-2.914062-13.257812-8-17.761719v-23.039062c18.644532-3.785157 32.039063-20.175781 32.039063-39.199219s-13.394531-35.414062-32.039063-39.199219v-24.800781c0-4.417969-3.582031-8-8-8v-40c0-13.253906-10.746093-24-24-24h-144c-13.253906 0-24 10.746094-24 24v40c-4.417968 0-8 3.582031-8 8v24.800781c-18.640624 3.785157-32.039062 20.175781-32.039062 39.199219s13.398438 35.414062 32.039062 39.199219v23.503906l-5.769531 17.296875h-18.230469v-16h-16v48h16v-16h12.894532l-4.488282 13.472656c-.8125 2.4375-.402343 5.121094 1.101563 7.207032 1.503906 2.085937 3.921875 3.320312 6.492187 3.320312h24v24c0 4.417969 3.582032 8 8 8h16v16h-32c-4.417968 0-8 3.582031-8 8v30.542969l-47.496093 126.640625c-.925781 2.457031-.5820315 5.214844.914062 7.375 1.496094 2.15625 3.957031 3.445312 6.582031 3.441406h48c3.335938.003906 6.324219-2.0625 7.496094-5.183594l46.046875-122.816406h10.457031v120c0 4.417969 3.582032 8 8 8h48c4.417969 0 8-3.582031 8-8v-120h10.457032l46.046875 122.816406c1.175781 3.121094 4.160156 5.1875 7.496093 5.183594h48c2.625.003906 5.085938-1.285156 6.582032-3.441406 1.496094-2.160156 1.839844-4.917969.914062-7.375zm-8-126.542969c0 4.417969-3.582031 8-8 8-4.417968 0-8-3.582031-8-8s3.582032-8 8-8c4.417969 0 8 3.582031 8 8zm-32 0c0 13.253906 10.746094 24 24 24h-32v-160h32v112c-13.253906 0-24 10.746094-24 24zm-44.894531 24 10.664063-32h10.230468v32zm-107.105469-160h32v16h-32zm128 80h-70.558593c8.742187-14.804688 8.742187-33.195312 0-48h70.558593zm8-96c-4.417968 0-8 3.582031-8 8v24h-80v-24c0-4.417969-3.582031-8-8-8v-16h96zm-104 48c8.671876 0 16 10.992188 16 24s-7.328124 24-16 24h-8.207031c10.941407-14.128906 10.941407-33.871094 0-48zm0 64v16h-32v-16zm16 0h80v16h-80zm160-40c0 6.347656-2.507812 12.4375-6.976562 16.945312-2.5625 2.503907-5.640625 4.414063-9.023438 5.597657v-45.070313c9.554688 3.378906 15.957032 12.394532 16 22.527344zm-200-112c0-4.417969 3.582032-8 8-8h144c4.417969 0 8 3.582031 8 8v40h-16v-24c0-4.417969-3.582031-8-8-8h-112c-4.417968 0-8 3.582031-8 8v24h-16zm-40 112c0-13.253906 10.746094-24 24-24 13.253907 0 24 10.746094 24 24s-10.746093 24-24 24c-13.253906 0-24-10.746094-24-24zm19.097657 104 10.671875-32h103.132812l-10.671875 32zm28.902343 16h144v16h-144zm24 32h96v16h-96zm-40 32h176v16h-176zm-13.542968 144h-30.914063l42-112h30.914063zm117.542968 0h-32v-112h32zm85.542969 0-42-112h30.914063l42 112zm0 0"/></svg>