<svg height="480pt" viewBox="0 0 480.02924 480" width="480pt" xmlns="http://www.w3.org/2000/svg"><path d="m160.027344 431.953125c0 8.835937-7.160156 16-16 16-8.835938 0-16-7.164063-16-16s7.164062-16 16-16c8.839844 0 16 7.164063 16 16zm0 0"/><path d="m432.027344 383.953125h-56v-16h48c4.421875 0 8-3.582031 8-8v-64c0-2.121094-.839844-4.15625-2.34375-5.65625l-21.65625-21.65625v-12.6875c0-13.253906-10.742188-24-24-24h-50.183594l-8.09375-30.167969c-9.421875-35.191406-34.382812-64.160156-67.792969-78.679687l-175.078125-76.65625c-2.945312-1.269531-6.0625-2.078125-9.25-2.398438l-.496094-17.265625c-.777343-12.863281-10.089843-23.601562-22.714843-26.191406-12.625-2.585938-25.414063 3.621094-31.1875 15.144531l-12.371094 24.664063c-4.496094 9-6.8359375 18.925781-6.8320312 28.992187-.0039063 7.441407.5937502 14.875 1.7851562 22.222657l28.433594 177.695312-3.023438 2.25c-18.128906 13.59375-28.300781 35.320312-27.1328122 57.953125 1.1718752 22.628906 13.5273442 43.191406 32.9648442 54.84375l10.878906 6.480469c1.238281.734375 2.65625 1.117187 4.09375 1.113281h40c2.953125 0 5.664062-1.625 7.058594-4.226563 1.390624-2.601562 1.238281-5.757812-.402344-8.214843l-14.65625-21.957031v-85.601563c-.011719-1.136719-.113282-2.273437-.308594-3.390625l-4.273438-156.671875 127.257813 68.933594c11.050781 6.003906 19.75 15.5625 24.6875 27.128906h-43.363281c-2.671875 0-5.167969 1.335937-6.652344 3.558594l-32 48c-.875 1.316406-1.34375 2.863281-1.347656 4.441406v96c0 4.417969 3.582031 8 8 8h48v16h-56c-26.507813 0-48 21.492187-48 48s21.492187 48 48 48h288c26.511718 0 48-21.492187 48-48s-21.488282-48-48-48zm-224 16h188.320312c-16.425781 18.171875-16.425781 45.828125 0 64h-216.636718c16.425781-18.171875 16.425781-45.828125 0-64zm184-144v8h-72v-8c0-4.417969 3.582031-8 8-8h56c4.421875 0 8 3.582031 8 8zm-333.148438 8.574219c.332032.15625.65625.332031.964844.53125.503906.261718.976562.582031 1.410156.949218.308594.285157.59375.59375.855469.921876.59375.71875 1.066406 1.53125 1.398437 2.398437.128907.433594.214844.878906.265626 1.328125l.0625 2.21875c-.429688 3.996094-3.785157 7.039062-7.808594 7.078125-4.417969 0-8-3.582031-8-8s3.582031-8 8-8c.980468.011719 1.945312.207031 2.851562.574219zm-8.648437 111.425781-8.953125-5.335937c-14.457032-8.675782-23.804688-23.824219-25.074219-40.632813-1.273437-16.808594 5.6875-33.191406 18.675781-43.941406.914063.734375 1.984375 1.257812 3.125 1.535156 6.339844 7.578125 16.765625 10.34375 26.023438 6.902344v65.472656c.003906 1.578125.472656 3.125 1.347656 4.441406l7.703125 11.558594zm13-126.824219c-.296875-.097656-.59375-.160156-.890625-.238281-.597656-.160156-1.183594-.371094-1.796875-.480469-1.488281-.300781-3-.453125-4.515625-.457031-1.539063.007813-3.074219.164063-4.582032.464844-.503906.09375-.96875.269531-1.457031.398437-.960937.238282-1.910156.535156-2.839843.878906-.542969.226563-1.046876.496094-1.597657.753907-.671875.335937-1.363281.640625-2 1.03125l-25.921875-162.414063c-1.0625-6.503906-1.597656-13.082031-1.601562-19.671875 0-7.589843 1.765625-15.078125 5.160156-21.867187l12.304688-24.605469c1.851562-3.457031 5.183593-5.875 9.042968-6.558594 3.859375-.6875 7.820313.433594 10.75 3.039063 2.25 2.109375 3.632813 4.984375 3.871094 8.0625l.554688 19.335937c-10.480469 4.867188-17.316407 15.222657-17.671876 26.769531-.355468 11.546876 5.832032 22.304688 15.988282 27.808594l3.203125 1.703125zm147.125-82.398437-146.695313-79.425781c-6.792968-3.765626-9.445312-12.191407-6.03125-19.167969 3.410156-6.980469 11.6875-10.0625 18.832032-7.015625l175.039062 76.648437c28.957031 12.582031 50.59375 37.6875 58.761719 68.183594l7.597656 28.320313c-8.417969 3.9375-13.808594 12.382812-13.832031 21.679687v8h-16v-48c0-4.417969-3.578125-8-8-8h-35.558594c-5.652344-17.617187-17.886719-32.375-34.152344-41.191406zm-50.328125 99.621093 28.28125-42.398437h83.71875v24h-16c-2.121094 0-4.152344.84375-5.652344 2.34375l-48 48c-1.503906 1.5-2.34375 3.535156-2.347656 5.65625v16h-40zm112-2.398437v56h-56v-12.6875l43.3125-43.3125zm-112 72h120c4.421875 0 8-3.582031 8-8v-48h108.691406l19.308594 19.3125v52.6875h-256zm56 32h144v16h-144zm-104 64c0-17.671875 14.328125-32 32-32 17.675781 0 32 14.328125 32 32s-14.324219 32-32 32c-17.671875 0-32-14.328125-32-32zm320 32c-17.671875 0-32-14.328125-32-32s14.328125-32 32-32c17.675781 0 32 14.328125 32 32s-14.324219 32-32 32zm0 0"/><path d="m448.027344 431.953125c0 8.835937-7.160156 16-16 16-8.835938 0-16-7.164063-16-16s7.164062-16 16-16c8.839844 0 16 7.164063 16 16zm0 0"/><path d="m304.027344 423.953125h16v16h-16zm0 0"/><path d="m256.027344 423.953125h16v16h-16zm0 0"/><path d="m352.027344 423.953125h16v16h-16zm0 0"/><path d="m208.027344 423.953125h16v16h-16zm0 0"/><path d="m376.027344 295.953125h16v24h-16zm0 0"/><path d="m344.027344 295.953125h16v24h-16zm0 0"/></svg>