<svg height="480pt" viewBox="0 0 480 480.1811" width="480pt" xmlns="http://www.w3.org/2000/svg"><path d="m363.0625 263.382812c-5.640625 3.757813-9.101562 10.023438-9.28125 16.796876h16c0-1.292969.304688-1.832032 3.519531-4.503907 5.765625-3.640625 9.257813-9.980469 9.257813-16.796875 0-6.820312-3.492188-13.160156-9.257813-16.800781-3.199219-2.6875-3.527343-3.199219-3.527343-4.527344s.304687-1.839843 3.527343-4.53125c5.648438-3.769531 9.109375-10.050781 9.28125-16.839843h-16c0 1.3125-.304687 1.839843-3.527343 4.53125-5.757813 3.644531-9.246094 9.984374-9.246094 16.796874 0 6.816407 3.488281 13.15625 9.246094 16.800782 3.199218 2.679687 3.527343 3.199218 3.527343 4.527344 0 1.328124-.304687 1.855468-3.519531 4.546874zm0 0"/><path d="m403.0625 263.382812c-5.640625 3.757813-9.101562 10.023438-9.28125 16.796876h16c0-1.292969.304688-1.832032 3.519531-4.503907 5.765625-3.640625 9.257813-9.980469 9.257813-16.796875 0-6.820312-3.492188-13.160156-9.257813-16.800781-3.199219-2.6875-3.527343-3.199219-3.527343-4.527344s.304687-1.839843 3.527343-4.53125c5.648438-3.769531 9.109375-10.050781 9.28125-16.839843h-16c0 1.3125-.304687 1.839843-3.527343 4.53125-5.757813 3.644531-9.246094 9.984374-9.246094 16.796874 0 6.816407 3.488281 13.15625 9.246094 16.800782 3.199218 2.679687 3.527343 3.199218 3.527343 4.527344 0 1.328124-.304687 1.855468-3.519531 4.546874zm0 0"/><path d="m323.0625 263.382812c-5.640625 3.757813-9.101562 10.023438-9.28125 16.796876h16c0-1.292969.304688-1.832032 3.519531-4.503907 5.765625-3.640625 9.257813-9.980469 9.257813-16.796875 0-6.820312-3.492188-13.160156-9.257813-16.800781-3.199219-2.6875-3.527343-3.199219-3.527343-4.527344s.304687-1.839843 3.527343-4.53125c5.648438-3.769531 9.109375-10.050781 9.28125-16.839843h-16c0 1.3125-.304687 1.839843-3.527343 4.53125-5.757813 3.644531-9.246094 9.984374-9.246094 16.796874 0 6.816407 3.488281 13.15625 9.246094 16.800782 3.199218 2.679687 3.527343 3.199218 3.527343 4.527344 0 1.328124-.304687 1.855468-3.519531 4.546874zm0 0"/><path d="m387.046875 57.894531c4.464844-3.265625 8.007813-7.628906 10.285156-12.664062l38.402344 25.597656c1.316406.878906 2.863281 1.351563 4.445313 1.351563h32v-16h-29.597657l-24-16h53.597657v-16h-73.132813c-3.617187-14.179688-16.425781-24.074219-31.058594-23.988282-14.632812.082032-27.328125 10.121094-30.78125 24.339844-63.386719 3.722656-112.917969 56.152344-113.027343 119.648438v232c0 4.417968-3.578126 8-8 8h-9.132813c-3.554687-13.785157-15.789063-23.566407-30.015625-24l-39.25-7.839844c-2.355469-.480469-4.800781.125-6.660156 1.644531s-2.941406 3.792969-2.941406 6.195313v.167968c-2.515626-1.941406-5.253907-3.582031-8.160157-4.878906.109375-1.09375.164063-2.191406.160157-3.289062.003906-4.894532-.890626-9.746094-2.636719-14.320313 15.75-9.882813 22.554687-29.359375 16.382812-46.902344 28.351563-10.15625 49.53125-34.121093 56.125-63.503906 6.59375-29.386719-2.3125-60.101563-23.605469-81.398437 9.414063-15.039063 12.152344-33.316407 7.554688-50.449219-4.59375-17.136719-16.105469-31.59375-31.777344-39.90625-6.867187-29.535157-31.503906-51.605469-61.613281-55.195313-30.113281-3.585937-59.246094 12.078125-72.859375 39.175782-13.609375 27.101562-8.785156 59.824218 12.070312 81.835937-11.820312 8.652344-19.039062 22.234375-19.589843 36.871094-.554688 14.636719 5.617187 28.722656 16.75 38.242187-.523438 3.828125-.792969 7.6875-.800781 11.550782.011718 11.921874 2.433593 23.714843 7.128906 34.671874-17.453125 12.648438-26.09375 34.199219-22.210938 55.402344 3.886719 21.203125 19.605469 38.289063 40.410156 43.925782-.875 3.261718-1.324218 6.625-1.328124 10 .0625 15.949218 9.539062 30.351562 24.160156 36.714843-.105469 1.089844-.160156 2.1875-.160156 3.285157.027343 22.082031 17.921874 39.976562 40 40 8.683593-.027344 17.117187-2.914063 24-8.207032v.207032c0 2.402343 1.082031 4.679687 2.941406 6.199218 1.859375 1.519532 4.304687 2.121094 6.660156 1.640625l39.25-7.839843c14.226562-.429688 26.460938-10.210938 30.015625-24h9.132813c13.257812 0 24-10.742188 24-24v-96h16v176c0 13.257812 10.746093 24 24 24h176c13.257812 0 24-10.742188 24-24v-288c-.09375-54.519532-39.398438-101.066407-93.132813-110.285157zm-282.867187 358.285157c-13.253907 0-24-10.742188-24-24 .046874-2.210938.398437-4.40625 1.050781-6.519532.605469-2.132812.300781-4.421875-.84375-6.320312-1.144531-1.898438-3.027344-3.234375-5.195313-3.695313-11.0625-2.386719-18.972656-12.148437-19.011718-23.464843.027343-4.269532 1.210937-8.453126 3.425781-12.101563 1.410156-2.386719 1.484375-5.332031.195312-7.785156-1.285156-2.453125-3.75-4.066407-6.515625-4.265625-17.734375-1.324219-32.464844-14.203125-36.148437-31.601563-3.683594-17.398437 4.5625-35.140625 20.238281-43.539062 1.871094-1 3.269531-2.703125 3.886719-4.734375.617187-2.035156.402343-4.226563-.601563-6.097656-5.601562-10.410157-8.515625-22.054688-8.480468-33.875.019531-4.527344.457031-9.046876 1.3125-13.496094.597656-3.125-.714844-6.308594-3.34375-8.101563-9.785157-6.65625-15.089844-18.179687-13.773438-29.945312 1.316406-11.761719 9.03125-21.832031 20.046875-26.160157 2.683594-1.0625 4.589844-3.488281 4.980469-6.351562.394531-2.859375-.785156-5.707031-3.085938-7.457031-19.960937-15.164063-27.398437-41.753907-18.203125-65.078125 9.195313-23.320313 32.78125-37.679688 57.722657-35.136719 24.9375 2.539063 45.144531 21.359375 49.449218 46.054687.457032 2.609376 2.171875 4.824219 4.585938 5.914063 17.203125 7.769531 28.277344 24.882813 28.308594 43.757813.035156 10.910156-3.691407 21.5-10.550782 29.984374-2.714844 3.382813-2.242187 8.308594 1.066406 11.113282 20.757813 17.546875 29.847657 45.296875 23.492188 71.722656-6.355469 26.429688-27.066406 47.015625-53.535156 53.207031-2.585938.589844-4.710938 2.425781-5.671875 4.898438-.960938 2.472656-.632813 5.261719.871093 7.445312 4.285157 6.132813 5.4375 13.921875 3.109376 21.035157-2.328126 7.109374-7.863282 12.710937-14.949219 15.125-2.332031.816406-4.15625 2.671874-4.941407 5.015624-.78125 2.347657-.433593 4.925782.941407 6.984376 4.058593 5.816406 5.191406 13.183593 3.066406 19.949218-.605469 2.132813-.300781 4.421875.84375 6.320313 1.144531 1.898437 3.027344 3.238281 5.195313 3.695312 12.070312 2.492188 20.292968 13.726563 19.019531 25.984375-1.273438 12.261719-11.628907 21.5625-23.957031 21.519532zm72-8c-.535157 0-1.070313.054687-1.597657.160156l-30.402343 6.082031v-44.480469l30.402343 6.078125c.527344.109375 1.0625.160157 1.597657.160157 8.839843 0 16 7.164062 16 16 0 8.839843-7.160157 16-16 16zm288-112h-192v-96h192zm0 16v96h-192v-96zm-192 112h192v16h-192zm192-256v16h-192v-16c0-53.019532 42.984374-96 96-96 53.019531 0 96 42.980468 96 96zm-96-152c7.234374-.015626 13.570312 4.832031 15.449218 11.8125 1.875 6.984374-1.179687 14.355468-7.449218 17.964843v-13.777343h-16v13.777343c-6.265626-3.609375-9.320313-10.980469-7.445313-17.964843 1.878906-6.980469 8.214844-11.828126 15.445313-11.8125zm-30.757813 24.34375c1.894531 6.96875 6.085937 13.085937 11.894531 17.371093-53.734375 9.21875-93.042968 55.765625-93.136718 110.285157v64h-16v-88c.085937-54.757813 42.601562-100.074219 97.242187-103.65625zm-97.242187 223.65625v-16h16v16zm216 200h-176c-4.417969 0-8-3.582032-8-8h192c0 4.417968-3.578126 8-8 8zm0 0"/></svg>