<svg height="512pt" viewBox="0 0 512.0001 512" width="512pt" xmlns="http://www.w3.org/2000/svg"><path d="m25.601562 512h277.332032c.058594 0 .105468-.03125.160156-.03125 6.714844-.039062 13.140625-2.722656 17.890625-7.46875l98.320313-98.320312c23.207031 12.683593 52.003906 8.488281 70.628906-10.289063l12.066406-12.070313c6.402344-6.398437 10-15.082031 10-24.136718 0-9.050782-3.597656-17.734375-10-24.132813l-6.035156-6.035156c-3.382813-3.199219-8.679688-3.199219-12.066406 0l-21.632813 21.636719h-17.066406l-7.070313-7.070313v-17.066406l21.632813-21.636719c3.332031-3.332031 3.332031-8.734375 0-12.066406l-6.03125-6.035156c-13.339844-13.308594-34.933594-13.308594-48.273438 0l-12.066406 12.070312c-18.769531 18.628906-22.964844 47.421875-10.289063 70.632813l-35.238281 35.234375c-14.101562-29.871094-40.699219-51.972656-72.644531-60.367188-9.066406-2.34375-18.390625-3.527344-27.753906-3.515625h-34.132813v-29.644531c46.4375-10.105469 83.84375-44.421875 97.902344-89.820312h13.03125c14.132813-.015626 25.585937-11.46875 25.601563-25.601563-.019532-4.417969-1.195313-8.753906-3.414063-12.578125 6.164063-3.863281 10.386719-10.175781 11.597656-17.351562 1.207031-7.171876-.707031-14.523438-5.261719-20.195313-7.351562-8.300781-16.09375-15.257813-25.832031-20.558594-9.1875-30.859375-28.085937-57.933593-53.890625-77.191406v-5.722656c.027344-10.488281-6.359375-19.925781-16.105468-23.796875-9.746094-3.871094-20.871094-1.390625-28.046876 6.257812-8.167968-2.710937-16.550781-4.734375-25.058593-6.046875-2.910157-11.234375-13.046875-19.082031-24.65625-19.082031-11.605469 0-21.742188 7.847656-24.652344 19.082031-8.507813 1.3125-16.890625 3.335938-25.0625 6.046875-7.175781-7.648437-18.296875-10.128906-28.042969-6.257812s-16.136718 13.308594-16.109375 23.796875v5.722656c-25.800781 19.257813-44.699219 46.332031-53.886719 77.191406-9.738281 5.300781-18.476562 12.257813-25.832031 20.554688-8.742187 10.847656-7.085937 26.714843 3.707031 35.519531.871094.679688 1.789063 1.300781 2.742188 1.859375-2.292969 3.859375-3.511719 8.261719-3.527344 12.75.015625 14.132813 11.464844 25.585937 25.597656 25.601563h13.046876c13.875 45.507812 51.355468 79.898437 97.886718 89.820312v29.644531h-34.132812c-29.425782-.011719-57.648438 11.671875-78.457032 32.476563-20.804687 20.808594-32.4882808 49.03125-32.476562 78.457031v34.132813c.015625 14.132812 11.46875 25.585937 25.601562 25.601562zm375.269532-145.753906c-12.148438-16.921875-10.207032-40.164063 4.585937-54.832032l12.066407-12.066406c6.671874-6.648437 17.46875-6.648437 24.140624 0l-18.101562 18.105469c-1.601562 1.601563-2.5 3.769531-2.5 6.03125v24.136719c0 2.261718.898438 4.433594 2.5 6.03125l12.0625 12.066406c1.601562 1.601562 3.773438 2.5 6.035156 2.5h24.136719c2.261719 0 4.433594-.898438 6.035156-2.5l18.097657-18.101562c3.203124 3.199218 5 7.539062 5 12.066406s-1.796876 8.867187-5 12.070312l-12.0625 12.074219c-14.664063 14.796875-37.90625 16.738281-54.824219 4.582031-3.394531-2.4375-8.058594-2.054687-11.007813.90625l-103.117187 103.117188c-3.332031 3.332031-8.738281 3.332031-12.070313 0-3.332031-3.332032-3.332031-8.734375-.003906-12.066406l103.121094-103.121094c2.957031-2.953125 3.339844-7.609375.90625-11zm-66.109375 52.070312-49.980469 49.984375c-1.1875 1.1875-2.25 2.492188-3.179688 3.890625v-107.328125c24.367188 9.671875 43.621094 29.03125 53.160157 53.453125zm-70.226563-58.175781v134.792969h-170.667968v-134.792969c5.625-1.101563 11.335937-1.683594 17.066406-1.742187v59.734374c.015625 14.132813 11.46875 25.585938 25.601562 25.601563h85.332032c14.132812-.015625 25.582031-11.46875 25.597656-25.601563v-59.734374c5.730468.058593 11.445312.640624 17.070312 1.742187zm-85.335937-136.378906c-12.636719-.789063-25.21875 2.222656-36.128907 8.648437-8.390624 5.011719-18.128906 7.289063-27.871093 6.523438-14.09375.738281-27.878907-4.320313-38.144531-14.007813-10.117188-11.480469-16.128907-26-17.078126-41.273437.085938-1.25.171876-2.492188.320313-3.734375.238281-2.84375.722656-5.6875 1.148437-8.265625.308594-1.558594.734376-3.0625 1.109376-4.582032 18.898437-9.738281 54.867187-22.003906 116.644531-22.003906 61.867187 0 97.878906 12.304688 116.632812 21.90625.371094 1.492188.792969 3.023438 1.074219 4.414063.472656 2.84375.957031 5.6875 1.222656 8.816406.128906 1.101563.210938 2.273437.292969 3.441406-.949219 15.273438-6.957031 29.800781-17.078125 41.28125-10.265625 9.6875-24.046875 14.746094-38.144531 14.007813-9.742188.765625-19.480469-1.511719-27.871094-6.523438-10.90625-6.425781-23.492187-9.4375-36.128906-8.648437zm145.066406-18.960938h-9.523437c.070312-.53125.195312-1.035156.257812-1.566406.480469-4.328125.722656-8.675781.734375-13.027344 0-.871093-.046875-1.640625-.0625-2.472656h8.59375c2.300781-.007813 4.496094.9375 6.074219 2.605469 1.59375 1.558594 2.480468 3.699218 2.460937 5.925781-.007812 4.710937-3.824219 8.527344-8.535156 8.535156zm-76.800781-170.667969c4.710937.007813 8.527344 3.824219 8.535156 8.535157v17.066406c0 4.710937-3.820312 8.53125-8.535156 8.53125-4.710938 0-8.53125-3.820313-8.53125-8.53125v-17.066406c.007812-4.710938 3.824218-8.527344 8.53125-8.535157zm-76.796875-8.535156c0-4.710937 3.820312-8.53125 8.53125-8.53125 4.714843 0 8.535156 3.820313 8.535156 8.53125v17.070313c0 4.710937-3.820313 8.53125-8.535156 8.53125-4.710938 0-8.53125-3.820313-8.53125-8.53125zm-68.269531 17.070313c0-4.714844 3.820312-8.535157 8.535156-8.535157 4.710937 0 8.53125 3.820313 8.53125 8.535157v17.066406c0 4.710937-3.820313 8.53125-8.53125 8.53125-4.714844 0-8.535156-3.820313-8.535156-8.53125zm-15.289063 26.25c4.410156 11.515625 16.414063 18.238281 28.535156 15.984375 12.125-2.253906 20.910157-12.839844 20.890625-25.167969v-17.066406c0-.636719-.144531-1.234375-.191406-1.859375 5.65625-1.804688 11.417969-3.246094 17.257812-4.304688v6.164063c0 14.136719 11.460938 25.597656 25.597657 25.597656 14.140625 0 25.601562-11.460937 25.601562-25.597656v-6.164063c5.835938 1.058594 11.601563 2.5 17.253907 4.304688-.046876.625-.1875 1.222656-.1875 1.859375v17.066406c-.019532 12.328125 8.765624 22.914063 20.886718 25.167969s24.125-4.46875 28.535156-15.984375c14.363282 12.675781 25.816407 28.304687 33.578126 45.8125-27.015626-11.113281-67.300782-20.863281-125.667969-20.863281-58.367188 0-98.652344 9.75-125.671875 20.867187 7.765625-17.511719 19.222656-33.140625 33.582031-45.816406zm-68.171875 87.882812c1.5-1.871093 38.101562-45.867187 160.261719-45.867187 122.164062 0 158.761719 43.996094 160.261719 45.871094 2.046874 2.558593 2.449218 6.0625 1.03125 9.019531-1.417969 2.953125-4.402344 4.835937-7.679688 4.84375-2.796875-.046875-5.414062-1.402344-7.066406-3.660157-3.679688-3.992187-39.046875-39.007812-146.546875-39.007812-111.570313 0-145.554688 37.867188-146.933594 39.460938-3.054687 3.546874-8.375 4.03125-12.019531 1.089843-3.59375-2.890625-4.175782-8.140625-1.308594-11.75zm15.195312 48c-4.710937-.007812-8.527343-3.824219-8.53125-8.535156-.007812-2.296875.9375-4.496094 2.605469-6.074219 1.582031-1.609375 3.757813-2.496094 6.011719-2.457031h8.511719c-.015625.832031-.0625 1.609375-.0625 2.472656.011719 4.367188.257812 8.734375.738281 13.074219.058594.515625.183594 1.007812.25 1.519531zm42.71875 41.410157c11.636719 6.734374 24.90625 10.121093 38.347657 9.789062 12.636719.789062 25.222656-2.222656 36.128906-8.652344 8.390625-5.007812 18.128906-7.285156 27.871094-6.519531 9.742187-.765625 19.480469 1.511719 27.871093 6.519531 10.910157 6.429688 23.492188 9.441406 36.128907 8.652344 13.429687.328125 26.6875-3.050781 38.316406-9.769531-23.308594 33.355469-61.628906 52.992187-102.316406 52.4375-40.734375.699219-79.128907-18.980469-102.347657-52.457031zm76.75 137.789062c4.710938 0 8.53125-3.820312 8.53125-8.535156v-60.816406c5.664063.683593 11.363282 1.046874 17.066407 1.085937 5.707031-.039063 11.40625-.40625 17.066406-1.105469v60.835938c0 4.714844 3.820313 8.535156 8.535156 8.535156 4.710938 0 8.53125-3.820312 8.53125-8.535156v-17.066406h17.066407v59.734374c-.003907 4.710938-3.820313 8.527344-8.53125 8.535157h-85.332032c-4.710937-.007813-8.527344-3.824219-8.535156-8.535157v-59.734374h17.066406v17.066406c0 4.714844 3.820313 8.535156 8.535156 8.535156zm-136.535156 68.265625c-.015625-38.65625 23.707032-73.359375 59.734375-87.382813v130.050782h-51.199219c-4.710937-.007813-8.527343-3.824219-8.535156-8.535156zm0 0"/></svg>